<svg width="29" height="29" viewBox="0 0 29 29" fill="none" xmlns="http://www.w3.org/2000/svg">
<path d="M28.4358 15.849C28.276 13.7914 27.5444 11.8194 26.3235 10.1555C24.8564 4.18506 18.7785 -0.0114085 12.6141 0.633779C6.6595 1.25698 1.8262 5.94564 1.13463 11.9121C0.811829 14.6119 1.35686 17.3444 2.69077 19.7137C2.75792 19.8348 2.79952 19.9683 2.81298 20.106C2.82644 20.2438 2.81148 20.3828 2.76903 20.5146C2.39575 21.7483 1.79086 22.8997 0.986683 23.9071C0.777836 24.1717 0.647909 24.4899 0.611843 24.825C0.575777 25.1602 0.635038 25.4987 0.782809 25.8016C0.930581 26.1046 1.16086 26.3597 1.44717 26.5376C1.73348 26.7155 2.06419 26.809 2.40126 26.8073C4.8633 26.749 6.92351 26.3487 8.69706 25.5119C8.81169 25.4574 8.93598 25.4261 9.06276 25.4199C9.18953 25.4137 9.31628 25.4327 9.43567 25.4758C10.0473 25.7024 10.6753 25.8818 11.3143 26.0126C12.7142 26.9362 14.3062 27.5286 15.9693 27.7448C17.6324 27.9611 19.323 27.7956 20.9125 27.2608C21.0079 27.2286 21.1088 27.2158 21.2092 27.2229C21.3096 27.23 21.4076 27.257 21.4975 27.3023C22.8802 28.0104 24.475 28.4059 26.3693 28.5621C27.8654 28.6855 28.8262 26.9456 27.9808 25.7165C27.4494 24.9265 27.051 24.0549 26.8012 23.1362C26.7683 23.0263 26.7584 22.9107 26.7722 22.7968C26.7859 22.6829 26.8229 22.5731 26.881 22.4741C28.0839 20.4845 28.628 18.166 28.4358 15.849ZM9.66495 24.8574C9.46321 24.7841 9.24893 24.7514 9.0345 24.7614C8.82007 24.7713 8.60974 24.8237 8.41568 24.9155C6.72896 25.7112 4.75735 26.0605 2.39247 26.1478C2.18029 26.1479 1.97236 26.0883 1.79245 25.9758C1.61253 25.8634 1.46788 25.7026 1.37502 25.5118C1.28217 25.321 1.24485 25.1079 1.26733 24.897C1.28982 24.686 1.3712 24.4856 1.50217 24.3186C2.36322 23.2528 3.00713 22.0286 3.39751 20.7153C3.46752 20.4972 3.49193 20.267 3.46924 20.0391C3.44655 19.8112 3.37724 19.5904 3.26561 19.3904C2.27481 17.6252 1.73905 15.6411 1.70667 13.6172C1.67429 11.5932 2.14631 9.59302 3.08013 7.79706C4.01396 6.0011 5.38021 4.46589 7.05564 3.32991C8.73107 2.19393 10.6629 1.49294 12.677 1.29018C20.2983 0.495509 26.9454 7.25184 26.007 14.8505C25.7914 16.683 25.1627 18.4426 24.1683 19.9967C23.1738 21.5509 21.8395 22.859 20.266 23.8225C18.6925 24.786 16.9209 25.3798 15.0845 25.5591C13.2482 25.7383 11.3951 25.4984 9.66495 24.8574ZM26.1675 23.3187C26.4319 24.305 26.8598 25.2401 27.4334 26.0849C27.9698 26.8517 27.3675 27.9917 26.4178 27.9047C24.6153 27.7396 23.1007 27.383 21.7982 26.7158C21.6302 26.6306 21.4469 26.5797 21.259 26.5659C21.0711 26.5521 20.8824 26.5758 20.7037 26.6356C18.2141 27.4748 15.4985 27.336 13.1074 26.2472C13.6503 26.2815 14.1949 26.2821 14.7379 26.2489C17.7387 26.0619 20.578 24.8249 22.7584 22.7547C24.9388 20.6844 26.3211 17.9129 26.6632 14.9257C26.7764 13.9387 26.7764 12.942 26.6632 11.955C27.4732 13.5417 27.8663 15.3083 27.8057 17.0887C27.7451 18.8692 27.2327 20.605 26.3167 22.1329C26.2118 22.3097 26.1444 22.5061 26.1187 22.71C26.093 22.914 26.1096 23.121 26.1675 23.3182V23.3187Z" fill="white" stroke="white" stroke-width="0.4"/>
<path d="M11.9709 11.051C12.031 10.9888 12.0642 10.9055 12.0635 10.8191C12.0627 10.7326 12.0281 10.6499 11.9669 10.5888C11.9058 10.5276 11.8231 10.493 11.7366 10.4922C11.6502 10.4914 11.5669 10.5247 11.5047 10.5847C10.415 11.6744 9.16487 11.6744 8.07541 10.5847C8.01322 10.5247 7.92993 10.4914 7.84347 10.4922C7.75702 10.493 7.67432 10.5276 7.61318 10.5888C7.55204 10.6499 7.51737 10.7326 7.51661 10.8191C7.51586 10.9055 7.5491 10.9888 7.60916 11.051C8.28183 11.7237 9.03605 12.06 9.79005 12.06C10.5441 12.06 11.2983 11.7237 11.9709 11.051Z" fill="white" stroke="white" stroke-width="0.4"/>
<path d="M17.9875 12.0607C18.7538 12.0607 19.5081 11.7116 20.1682 11.051C20.2283 10.9888 20.2615 10.9055 20.2608 10.8191C20.26 10.7326 20.2253 10.6499 20.1642 10.5888C20.1031 10.5276 20.0203 10.493 19.9339 10.4922C19.8474 10.4914 19.7641 10.5247 19.702 10.5847C19.168 11.1187 18.5749 11.4012 17.9873 11.4012C17.3997 11.4012 16.8066 11.1187 16.2727 10.5847C16.2105 10.5247 16.1272 10.4914 16.0407 10.4922C15.9543 10.493 15.8716 10.5276 15.8104 10.5888C15.7493 10.6499 15.7146 10.7326 15.7139 10.8191C15.7131 10.9055 15.7464 10.9888 15.8064 11.051C16.467 11.7116 17.2212 12.0607 17.9875 12.0607Z" fill="white" stroke="white" stroke-width="0.4"/>
<path d="M18.8032 16.4407C18.8985 16.1905 18.932 15.921 18.9008 15.655C18.8696 15.3891 18.7745 15.1346 18.6237 14.9133C18.473 14.692 18.2709 14.5105 18.0349 14.3841C17.7988 14.2577 17.5357 14.1903 17.2679 14.1875H10.5105C10.2427 14.1903 9.97959 14.2577 9.74351 14.3841C9.50744 14.5105 9.30541 14.692 9.15464 14.9133C9.00386 15.1346 8.9088 15.3891 8.87756 15.655C8.84632 15.921 8.87982 16.1905 8.97521 16.4407C9.36236 17.4287 10.0383 18.2771 10.9149 18.875C11.7915 19.473 12.828 19.7929 13.8892 19.7929C14.9503 19.7929 15.9868 19.473 16.8634 18.875C17.74 18.2771 18.416 17.4287 18.8032 16.4407ZM13.8892 19.1336C12.8385 19.1367 11.8184 18.7803 10.9983 18.1235C11.7847 17.3951 12.8171 16.9904 13.889 16.9904C14.9609 16.9904 15.9933 17.3951 16.7797 18.1235C15.9597 18.7802 14.9397 19.1366 13.8892 19.1336ZM13.8892 16.3308C12.6328 16.3268 11.4231 16.807 10.5116 17.6717C10.114 17.2437 9.80077 16.7446 9.5883 16.2004C9.53046 16.0502 9.50993 15.8881 9.52846 15.7281C9.54699 15.5682 9.60404 15.4151 9.6947 15.2821C9.78537 15.149 9.90696 15.0399 10.049 14.9641C10.1911 14.8883 10.3494 14.8481 10.5105 14.847H17.2679C17.4288 14.8484 17.587 14.8887 17.7289 14.9645C17.8708 15.0404 17.9922 15.1494 18.0828 15.2824C18.1734 15.4154 18.2304 15.5684 18.2489 15.7282C18.2675 15.8881 18.2471 16.05 18.1894 16.2002C17.977 16.7445 17.6637 17.2438 17.2661 17.672C16.3508 16.8137 15.144 16.3344 13.8892 16.3308Z" fill="white" stroke="white" stroke-width="0.4"/>
</svg>
